#Comment line ignore any data following # character 
#Hierarchical Translation and Rotation (.htr) file 
[Header]	
#Header keywords are followed by a single value 
FileType HTR		#Single word string
DataType HTRS		#Translation followed by rotation and scale data
FileVersion 1		#integer
NumSegments 64		#integer
NumFrames 3		#integer
DataFrameRate 30		#integer, data frame rate in this file
EulerRotationOrder ZYX
CalibrationUnits mm
RotationUnits Degrees
GlobalAxisofGravity Y
BoneLengthAxis Y
ScaleFactor 1.00
[SegmentNames&Hierarchy]
#CHILD	PARENT
Pinger_Root GLOBAL
Pelvis Pinger_Root
L_Hip Pelvis
R_Hip Pelvis
Rear_Leg01 Pelvis
Spine1 Pelvis
L_Leg01 L_Hip
L_Leg02 L_Leg01
L_Leg03 L_Leg02
L_Foot L_Leg03
L_Toe1_01 L_Foot
L_Toe2_01 L_Foot
L_Toe3_01 L_Foot
planeAlignerLeft L_Foot
L_Toe1_02 L_Toe1_01
L_Toe1_03 L_Toe1_02
L_Toe2_02 L_Toe2_01
L_Toe2_03 L_Toe2_02
L_Toe3_02 L_Toe3_01
L_Toe3_03 L_Toe3_02
planeLockWeightLeft planeAlignerLeft
R_Leg01 R_Hip
R_Leg02 R_Leg01
R_Leg03 R_Leg02
R_Foot R_Leg03
planeAlignerRight R_Foot
R_Toe1_01 R_Foot
R_Toe2_01 R_Foot
R_Toe3_01 R_Foot
planeLockWeightRight planeAlignerRight
R_Toe1_02 R_Toe1_01
R_Toe1_03 R_Toe1_02
R_Toe2_02 R_Toe2_01
R_Toe2_03 R_Toe2_02
R_Toe3_02 R_Toe3_01
R_Toe3_03 R_Toe3_02
Rear_Leg02 Rear_Leg01
Rear_Leg03 Rear_Leg02
Rear_Leg04 Rear_Leg03
Rear_Foot Rear_Leg04
planeAlignerCenter Rear_Foot
Rear_Toe1_01 Rear_Foot
Rear_Toe2_01 Rear_Foot
Rear_Toe3_01 Rear_Foot
planeLockWeightCenter planeAlignerCenter
Rear_Toe1_02 Rear_Toe1_01
Rear_Toe1_03 Rear_Toe1_02
Rear_Toe2_02 Rear_Toe2_01
Rear_Toe2_03 Rear_Toe2_02
Rear_Toe3_02 Rear_Toe3_01
Rear_Toe3_03 Rear_Toe3_02
Back_Bone Spine1
Head Spine1
Motor_Bone Back_Bone
Ping_Mechanism Back_Bone
BN_LookIK Head
bottomMouth Head
L_Mouth01 Head
L_mouthFront Head
mouthGun Head
R_Mouth01 Head
R_mouthFront Head
TopMouth Head
weapon_bone Head
[BasePosition]
#SegmentName Tx, Ty, Tz, Rx, Ry, Rz, BoneLength
Pinger_Root 0.000000 0.000000 0.000000 -90.000000 0.000000 0.000000 10.000000 
Pelvis 0.000000 0.000000 0.000000 0.000000 0.000000 0.000000 10.000000 
L_Hip 0.000000 0.000000 0.000000 0.000000 0.000000 0.000000 10.000000 
R_Hip 0.000000 0.000000 0.000000 0.000000 0.000000 0.000000 10.000000 
Rear_Leg01 0.000000 0.000000 0.000000 0.000000 0.000000 0.000000 10.000000 
Spine1 0.000000 0.000000 0.000000 0.000000 0.000000 0.000000 10.000000 
L_Leg01 0.000000 0.000000 0.000000 0.000000 0.000000 0.000000 10.000000 
L_Leg02 0.000000 0.000000 0.000000 0.000000 0.000000 0.000000 10.000000 
L_Leg03 0.000000 0.000000 0.000000 0.000000 0.000000 0.000000 10.000000 
L_Foot 0.000000 0.000000 0.000000 0.000000 0.000000 0.000000 10.000000 
L_Toe1_01 0.000000 0.000000 0.000000 0.000000 0.000000 0.000000 10.000000 
L_Toe2_01 0.000000 0.000000 0.000000 0.000000 0.000000 0.000000 10.000000 
L_Toe3_01 0.000000 0.000000 0.000000 0.000000 0.000000 0.000000 10.000000 
planeAlignerLeft 0.000000 0.000000 0.000000 0.000000 0.000000 0.000000 10.000000 
L_Toe1_02 0.000000 0.000000 0.000000 0.000000 0.000000 0.000000 10.000000 
L_Toe1_03 0.000000 0.000000 0.000000 0.000000 0.000000 0.000000 10.000000 
L_Toe2_02 0.000000 0.000000 0.000000 0.000000 0.000000 0.000000 10.000000 
L_Toe2_03 0.000000 0.000000 0.000000 0.000000 0.000000 0.000000 10.000000 
L_Toe3_02 0.000000 0.000000 0.000000 0.000000 0.000000 0.000000 10.000000 
L_Toe3_03 0.000000 0.000000 0.000000 0.000000 0.000000 0.000000 10.000000 
planeLockWeightLeft 0.000000 0.000000 0.000000 0.000000 0.000000 0.000000 10.000000 
R_Leg01 0.000000 0.000000 0.000000 0.000000 0.000000 0.000000 10.000000 
R_Leg02 0.000000 0.000000 0.000000 0.000000 0.000000 0.000000 10.000000 
R_Leg03 0.000000 0.000000 0.000000 0.000000 0.000000 0.000000 10.000000 
R_Foot 0.000000 0.000000 0.000000 0.000000 0.000000 0.000000 10.000000 
planeAlignerRight 0.000000 0.000000 0.000000 0.000000 0.000000 0.000000 10.000000 
R_Toe1_01 0.000000 0.000000 0.000000 0.000000 0.000000 0.000000 10.000000 
R_Toe2_01 0.000000 0.000000 0.000000 0.000000 0.000000 0.000000 10.000000 
R_Toe3_01 0.000000 0.000000 0.000000 0.000000 0.000000 0.000000 10.000000 
planeLockWeightRight 0.000000 0.000000 0.000000 0.000000 0.000000 0.000000 10.000000 
R_Toe1_02 0.000000 0.000000 0.000000 0.000000 0.000000 0.000000 10.000000 
R_Toe1_03 0.000000 0.000000 0.000000 0.000000 0.000000 0.000000 10.000000 
R_Toe2_02 0.000000 0.000000 0.000000 0.000000 0.000000 0.000000 10.000000 
R_Toe2_03 0.000000 0.000000 0.000000 0.000000 0.000000 0.000000 10.000000 
R_Toe3_02 0.000000 0.000000 0.000000 0.000000 0.000000 0.000000 10.000000 
R_Toe3_03 0.000000 0.000000 0.000000 0.000000 0.000000 0.000000 10.000000 
Rear_Leg02 0.000000 0.000000 0.000000 0.000000 0.000000 0.000000 10.000000 
Rear_Leg03 0.000000 0.000000 0.000000 0.000000 0.000000 0.000000 10.000000 
Rear_Leg04 0.000000 0.000000 0.000000 0.000000 0.000000 0.000000 10.000000 
Rear_Foot 0.000000 0.000000 0.000000 0.000000 0.000000 0.000000 10.000000 
planeAlignerCenter 0.000000 0.000000 0.000000 0.000000 0.000000 0.000000 10.000000 
Rear_Toe1_01 0.000000 0.000000 0.000000 0.000000 0.000000 0.000000 10.000000 
Rear_Toe2_01 0.000000 0.000000 0.000000 0.000000 0.000000 0.000000 10.000000 
Rear_Toe3_01 0.000000 0.000000 0.000000 0.000000 0.000000 0.000000 10.000000 
planeLockWeightCenter 0.000000 0.000000 0.000000 0.000000 0.000000 0.000000 10.000000 
Rear_Toe1_02 0.000000 0.000000 0.000000 0.000000 0.000000 0.000000 10.000000 
Rear_Toe1_03 0.000000 0.000000 0.000000 0.000000 0.000000 0.000000 10.000000 
Rear_Toe2_02 0.000000 0.000000 0.000000 0.000000 0.000000 0.000000 10.000000 
Rear_Toe2_03 0.000000 0.000000 0.000000 0.000000 0.000000 0.000000 10.000000 
Rear_Toe3_02 0.000000 0.000000 0.000000 0.000000 0.000000 0.000000 10.000000 
Rear_Toe3_03 0.000000 0.000000 0.000000 0.000000 0.000000 0.000000 10.000000 
Back_Bone 0.000000 0.000000 0.000000 0.000000 0.000000 0.000000 10.000000 
Head 0.000000 0.000000 0.000000 0.000000 0.000000 0.000000 10.000000 
Motor_Bone 0.000000 0.000000 0.000000 0.000000 0.000000 0.000000 10.000000 
Ping_Mechanism 0.000000 0.000000 0.000000 0.000000 0.000000 0.000000 10.000000 
BN_LookIK 0.000000 0.000000 0.000000 0.000000 0.000000 0.000000 10.000000 
bottomMouth 0.000000 0.000000 0.000000 0.000000 0.000000 0.000000 10.000000 
L_Mouth01 0.000000 0.000000 0.000000 0.000000 0.000000 0.000000 10.000000 
L_mouthFront 0.000000 0.000000 0.000000 0.000000 0.000000 0.000000 10.000000 
mouthGun 0.000000 0.000000 0.000000 0.000000 0.000000 0.000000 10.000000 
R_Mouth01 0.000000 0.000000 0.000000 0.000000 0.000000 0.000000 10.000000 
R_mouthFront 0.000000 0.000000 0.000000 0.000000 0.000000 0.000000 10.000000 
TopMouth 0.000000 0.000000 0.000000 0.000000 0.000000 0.000000 10.000000 
weapon_bone 0.000000 0.000000 0.000000 0.000000 0.000000 0.000000 10.000000 
#Beginning of Data. Separated by tabs
#Fr	Tx	Ty	Tz	Rx	Ry	Rz	SF
[Pinger_Root]
207 0.000000 0.000000 0.000000 -0.000075 -0.000000 -0.000020 0.000000
208 0.000000 0.000000 0.000000 -0.000075 -0.000000 -0.000020 0.000000
209 0.000000 0.000000 0.000000 -0.000075 -0.000000 -0.000020 0.000000
[Pelvis]
207 24.134779 711.578125 3699.331299 108.048462 -79.941475 -115.535591 3767.224121
208 23.841909 697.963745 3713.848145 112.182831 -80.676941 -119.660614 3778.940186
209 23.365480 684.902466 3730.910645 116.927811 -81.602676 -124.429764 3793.327148
[L_Hip]
207 5.766392 125.831482 872.656799 160.158691 -45.484905 122.312202 881.701050
208 5.766392 125.831482 872.656799 160.158691 -45.484905 122.312202 881.701050
209 5.766392 125.831482 872.656799 160.158691 -45.484905 122.312202 881.701050
[R_Hip]
207 5.765438 125.836372 -872.654907 38.058685 49.831837 125.666435 881.699829
208 5.765438 125.836372 -872.654907 38.059357 49.831371 125.667297 881.699829
209 5.765438 125.836372 -872.654907 38.060047 49.830936 125.668190 881.699829
[Rear_Leg01]
207 -192.298416 -925.602966 -0.001907 168.683990 1.411330 -138.910004 945.367432
208 -192.298416 -925.602966 -0.001907 168.474396 0.989049 -140.409439 945.367432
209 -192.298416 -925.602966 -0.001907 168.313766 0.645269 -142.100403 945.367432
[Spine1]
207 290.604584 5.007505 0.000477 7.543980 2.559891 32.544834 290.647736
208 290.604584 5.007505 0.000477 7.555655 2.975614 31.508301 290.647736
209 290.604584 5.007505 0.000477 7.559802 3.391440 30.471537 290.647736
[L_Leg01]
207 761.932007 -0.002384 -0.069261 29.669256 -19.745226 4.810091 761.932068
208 761.932007 -0.002384 -0.069261 27.586018 -21.533911 9.563918 761.932068
209 761.932007 -0.002384 -0.069261 25.506781 -22.960838 14.119670 761.932068
[L_Leg02]
207 1441.140503 -0.000954 -0.000715 5.396132 -0.347323 -156.685349 1441.140503
208 1441.140503 -0.000954 -0.000715 5.055688 -0.549970 -158.029282 1441.140503
209 1441.140503 -0.000954 -0.000715 4.843428 -0.725195 -159.080261 1441.140503
[L_Leg03]
207 1686.963989 -0.000715 -0.000954 -0.032022 0.013581 118.613068 1686.963989
208 1686.963989 -0.000715 -0.000954 -0.020797 0.008337 115.731316 1686.963989
209 1686.963989 -0.000715 -0.000954 -0.011405 0.002334 113.125122 1686.963989
[L_Foot]
207 3041.570068 -30.715107 11.297464 1.033616 12.008039 57.769810 3041.746094
208 3041.570068 -30.715107 11.297464 0.958977 11.785069 58.062557 3041.746094
209 3041.570068 -30.715107 11.297464 0.883255 11.562481 58.355312 3041.746094
[L_Toe1_01]
207 -188.216690 -224.732346 -21.137953 95.588348 -5.952642 171.458252 293.899567
208 -188.216690 -224.732346 -21.137953 95.574234 -6.025633 171.853699 293.899567
209 -188.216690 -224.732346 -21.137953 95.559639 -6.098527 172.249207 293.899567
[L_Toe2_01]
207 200.746536 -219.926590 148.838394 -95.246429 -26.168072 -40.789047 332.896027
208 200.746536 -219.926590 148.838394 -95.054413 -26.178650 -41.251053 332.896027
209 200.746536 -219.926590 148.838394 -94.791649 -26.194302 -41.883633 332.896027
[L_Toe3_01]
207 188.832520 -219.859131 -191.078659 -97.187592 16.695868 -58.907234 347.140900
208 188.832520 -219.859131 -191.078659 -97.248947 16.523083 -59.332241 347.140900
209 188.832520 -219.859131 -191.078659 -97.333847 16.291925 -59.913353 347.140900
[planeAlignerLeft]
207 0.812531 -811.448792 -0.314951 0.000000 -90.000000 -90.001900 811.449280
208 0.812531 -811.448792 -0.314951 0.000000 -90.000000 -90.001900 811.449280
209 0.812531 -811.448792 -0.314951 0.000000 -90.000000 -90.001900 811.449280
[L_Toe1_02]
207 413.761139 0.000477 0.000000 0.001438 -19.394777 0.001438 413.761139
208 413.761139 0.000477 0.000000 0.001438 -19.452242 0.001438 413.761139
209 413.761139 0.000477 0.000000 0.001437 -19.509703 0.001437 413.761139
[L_Toe1_03]
207 464.317322 0.000358 -0.000089 -179.978455 87.172295 -179.974960 464.317322
208 464.317322 0.000358 -0.000089 -179.976700 87.369537 -179.973206 464.317322
209 464.317322 0.000358 -0.000089 -179.990295 87.678307 -179.987488 464.317322
[L_Toe2_02]
207 342.235809 -0.000477 0.000238 0.004686 -80.674454 0.004686 342.235809
208 342.235809 -0.000477 0.000238 0.004686 -80.633209 0.004686 342.235809
209 342.235809 -0.000477 0.000238 0.004686 -80.591904 0.004686 342.235809
[L_Toe2_03]
207 420.210846 -0.000715 0.000000 179.992111 57.960228 179.999390 420.210846
208 420.210846 -0.000715 0.000000 179.992065 58.336899 179.999344 420.210846
209 420.210846 -0.000715 0.000000 179.992020 58.713558 179.999283 420.210846
[L_Toe3_02]
207 329.270111 0.000954 0.000000 0.004675 -84.666672 0.004675 329.270111
208 329.270111 0.000954 0.000000 0.004675 -84.666672 0.004675 329.270111
209 329.270111 0.000954 0.000000 0.004675 -84.666565 0.004675 329.270111
[L_Toe3_03]
207 439.137451 -0.001907 0.000954 179.992981 47.829369 -179.999512 439.137451
208 439.137451 -0.001907 0.000954 179.992966 48.232414 -179.999557 439.137451
209 439.137451 -0.001907 0.000954 179.992950 48.635479 -179.999588 439.137451
[planeLockWeightLeft]
207 -0.000954 0.000238 -0.000305 -0.011826 -0.004376 0.005620 0.001029
208 -0.000954 0.000238 -0.000305 -0.011826 -0.004376 0.005620 0.001029
209 -0.000954 0.000238 -0.000305 -0.011826 -0.004376 0.005620 0.001029
[R_Leg01]
207 761.455627 -0.001907 -0.000358 116.570816 -11.498148 34.686974 761.455688
208 761.455627 -0.001907 -0.000358 117.554703 -14.722955 33.213161 761.455688
209 761.455627 -0.001907 -0.000358 118.641685 -17.921335 31.656981 761.455688
[R_Leg02]
207 1441.140625 0.000000 -0.000238 -2.272972 -0.763717 -147.245560 1441.140625
208 1441.140625 0.000000 -0.000238 -2.206171 -0.655061 -148.353973 1441.140625
209 1441.140625 0.000000 -0.000238 -2.141491 -0.545143 -149.462158 1441.140625
[R_Leg03]
207 1686.963989 0.000954 0.001431 0.104953 -0.062308 138.228119 1686.963989
208 1686.963989 0.000954 0.001431 0.097962 -0.055803 136.261093 1686.963989
209 1686.963989 0.000954 0.001431 0.090743 -0.049534 134.291702 1686.963989
[R_Foot]
207 3041.560059 -30.531288 -11.204481 1.789505 -23.717302 59.614098 3041.734131
208 3041.560059 -30.531288 -11.204481 1.727856 -23.707069 60.047356 3041.734131
209 3041.560059 -30.531288 -11.204481 1.666297 -23.696407 60.480576 3041.734131
[planeAlignerRight]
207 -0.635147 -812.270569 -0.364304 0.000000 -89.960434 -90.005180 812.270874
208 -0.635147 -812.270569 -0.364304 0.000000 -89.960434 -90.005180 812.270874
209 -0.635147 -812.270569 -0.364304 0.000000 -89.960434 -90.005180 812.270874
[R_Toe1_01]
207 -188.383347 -224.864899 21.052242 77.017357 -2.881966 173.822708 294.101532
208 -188.383347 -224.864899 21.052242 76.982048 -2.799728 174.156036 294.101532
209 -188.383347 -224.864899 21.052242 76.947220 -2.717278 174.489304 294.101532
[R_Toe2_01]
207 200.637817 -220.002121 -148.787384 -86.045547 32.447624 -48.730846 332.857574
208 200.637817 -220.002121 -148.787384 -86.290306 32.430943 -49.195576 332.857574
209 200.637817 -220.002121 -148.787384 -86.534859 32.412582 -49.660156 332.857574
[R_Toe3_01]
207 188.606735 -220.092957 191.126343 -74.388557 -13.657000 -67.921669 347.192566
208 188.606735 -220.092957 191.126343 -74.390602 -13.497703 -68.262047 347.192566
209 188.606735 -220.092957 191.126343 -74.393608 -13.338428 -68.602211 347.192566
[planeLockWeightRight]
207 -0.000477 0.000000 0.000000 -0.011823 -0.004379 -0.000027 0.000477
208 -0.000477 0.000000 0.000000 -0.011823 -0.004379 -0.000027 0.000477
209 -0.000477 0.000000 0.000000 -0.011823 -0.004379 -0.000027 0.000477
[R_Toe1_02]
207 413.762085 0.000477 -0.000119 0.001466 -16.374817 0.001466 413.762085
208 413.762085 0.000477 -0.000119 0.001465 -16.432272 0.001465 413.762085
209 413.762085 0.000477 -0.000119 0.001465 -16.489729 0.001465 413.762085
[R_Toe1_03]
207 464.317810 0.000000 0.001088 -179.996414 77.645111 -179.992905 464.317810
208 464.317810 0.000000 0.001088 -179.996338 77.837654 -179.992828 464.317810
209 464.317810 0.000000 0.001088 -179.996246 78.030182 -179.992722 464.317810
[R_Toe2_02]
207 342.234741 -0.000954 0.000238 -0.002333 -79.417397 -0.002333 342.234741
208 342.234741 -0.000954 0.000238 -0.002333 -79.367607 -0.002333 342.234741
209 342.234741 -0.000954 0.000238 -0.002333 -79.317802 -0.002333 342.234741
[R_Toe2_03]
207 420.210846 0.000715 -0.000268 -179.995377 66.661934 -179.998947 420.210846
208 420.210846 0.000715 -0.000268 -179.995331 67.023056 -179.998901 420.210846
209 420.210846 0.000715 -0.000268 -179.995300 67.384178 -179.998856 420.210846
[R_Toe3_02]
207 329.270355 -0.000477 -0.000954 0.001176 -83.378426 0.001176 329.270355
208 329.270355 -0.000477 -0.000954 0.001176 -83.325974 0.001176 329.270355
209 329.270355 -0.000477 -0.000954 0.001176 -83.273605 0.001176 329.270355
[R_Toe3_03]
207 439.137939 0.000238 0.001431 -179.999344 62.855255 -179.995758 439.137939
208 439.137939 0.000238 0.001431 -179.999313 63.259819 -179.995712 439.137939
209 439.137939 0.000238 0.001431 -179.999268 63.664413 -179.995682 439.137939
[Rear_Leg02]
207 1162.777710 -0.029802 0.005960 2.298529 -1.855762 -164.004257 1162.777710
208 1162.777710 -0.029802 0.005960 2.287184 -1.869049 -163.672104 1162.777710
209 1162.777710 -0.029802 0.005960 2.271060 -1.892080 -163.094589 1162.777710
[Rear_Leg03]
207 607.192505 -0.013351 -0.073195 0.010108 -0.005829 76.290810 607.192505
208 607.192505 -0.013351 -0.073195 0.010114 -0.005819 76.176483 607.192505
209 607.192505 -0.013351 -0.073195 0.010120 -0.005808 76.062180 607.192505
[Rear_Leg04]
207 995.874512 -0.020504 -0.011921 -0.042711 -0.018451 87.428421 995.874573
208 995.874512 -0.020504 -0.011921 -0.042682 -0.018519 87.246834 995.874573
209 995.874512 -0.020504 -0.011921 -0.042616 -0.018671 86.838326 995.874573
[Rear_Foot]
207 3096.176270 -0.067472 -0.041425 -148.970306 85.721947 50.676754 3096.176270
208 3096.176270 -0.067472 -0.041425 -148.116211 85.778915 50.896160 3096.176270
209 3096.176270 -0.067472 -0.041425 -147.247147 85.835243 51.129879 3096.176270
[planeAlignerCenter]
207 0.350077 0.966311 -838.790894 0.000009 0.000003 -179.999985 838.791565
208 0.350077 0.966311 -838.790894 0.000009 0.000003 -179.999985 838.791565
209 0.350077 0.966311 -838.790894 0.000009 0.000003 -179.999985 838.791565
[Rear_Toe1_01]
207 0.653352 83.966492 -371.173737 0.336176 33.759445 90.437370 380.553192
208 0.653352 83.966492 -371.173737 0.335420 33.617268 90.437065 380.553192
209 0.653352 83.966492 -371.173737 0.334668 33.475094 90.436790 380.553192
[Rear_Toe2_01]
207 178.200760 -294.826019 -362.060547 -5.837828 33.855904 -63.465805 499.765686
208 178.200760 -294.826019 -362.060547 -5.852780 33.711365 -63.453442 499.765686
209 178.200760 -294.826019 -362.060547 -5.867741 33.566822 -63.441036 499.765686
[Rear_Toe3_01]
207 -153.359680 -308.780914 -362.060852 2.710646 33.415867 -113.739365 499.952881
208 -153.359680 -308.780914 -362.060852 2.716796 33.277050 -113.749886 499.952881
209 -153.359680 -308.780914 -362.060852 2.722968 33.138226 -113.760399 499.952881
[planeLockWeightCenter]
207 -0.000062 0.000238 0.000000 -0.011814 -0.004373 -0.000015 0.000246
208 -0.000062 0.000238 0.000000 -0.011814 -0.004373 -0.000015 0.000246
209 -0.000062 0.000238 0.000000 -0.011814 -0.004373 -0.000015 0.000246
[Rear_Toe1_02]
207 379.707825 0.194073 0.000477 -0.002648 -32.628948 -0.002648 379.707855
208 379.707825 0.194073 0.000477 -0.002648 -32.618649 -0.002648 379.707855
209 379.707825 0.194073 0.000477 -0.002648 -32.608334 -0.002648 379.707855
[Rear_Toe1_03]
207 500.129700 0.165701 0.000119 -179.957886 88.368050 -179.961395 500.129761
208 500.129700 0.165701 0.000119 -179.961090 88.227890 -179.964584 500.129761
209 500.129700 0.165701 0.000119 -179.963806 88.087669 -179.967300 500.129761
[Rear_Toe2_02]
207 340.494507 0.000238 -0.000954 0.001174 -87.025139 0.001174 340.494507
208 340.494507 0.000238 -0.000954 0.001174 -87.069954 0.001174 340.494507
209 340.494507 0.000238 -0.000954 0.001174 -87.114998 0.001174 340.494507
[Rear_Toe2_03]
207 433.103577 0.000000 0.000238 -179.993607 75.752533 -179.997131 433.103546
208 433.103577 0.000000 0.000238 -179.993652 75.609802 -179.997177 433.103546
209 433.103577 0.000000 0.000238 -179.993698 75.467079 -179.997223 433.103546
[Rear_Toe3_02]
207 340.494141 -0.000358 -0.000477 0.001174 -86.082687 0.001174 340.494171
208 340.494141 -0.000358 -0.000477 0.001174 -86.126366 0.001174 340.494171
209 340.494141 -0.000358 -0.000477 0.001174 -86.170135 0.001174 340.494171
[Rear_Toe3_03]
207 433.103577 0.001431 -0.000238 -179.996094 78.381325 -179.992569 433.103546
208 433.103577 0.001431 -0.000238 -179.996155 78.239380 -179.992630 433.103546
209 433.103577 0.001431 -0.000238 -179.996216 78.097458 -179.992706 433.103546
[Back_Bone]
207 1312.175781 -701.934692 0.000954 0.398937 0.043859 -87.438683 1488.125488
208 1312.175781 -701.934692 0.000954 0.294354 0.033747 -86.959152 1488.125488
209 1312.175781 -701.934692 0.000954 0.189702 0.024512 -86.479622 1488.125488
[Head]
207 1406.159424 809.709290 0.001431 1.928174 -10.015386 12.809409 1622.625488
208 1406.159424 809.709290 0.001431 2.360618 -9.937294 9.929466 1622.625488
209 1406.159424 809.709290 0.001431 2.756516 -9.848317 7.337316 1622.625488
[Motor_Bone]
207 1158.364380 -417.834747 0.000477 -0.000105 0.000046 -105.985291 1231.419434
208 1158.364380 -417.834747 0.000477 -0.000105 0.000046 -105.985291 1231.419434
209 1158.364380 -417.834747 0.000477 -0.000105 0.000046 -105.985291 1231.419434
[Ping_Mechanism]
207 1180.260132 -374.276947 -19.848249 0.000103 -0.000053 82.120995 1238.342163
208 1184.799072 -372.681458 -21.278881 0.000103 -0.000053 82.120995 1242.213013
209 1190.483154 -371.268097 -22.060402 0.000103 -0.000053 82.120995 1247.227539
[BN_LookIK]
207 193.241119 1380.371704 -0.002861 0.000000 89.965736 -31.038179 1393.832153
208 193.241119 1380.371704 -0.002861 0.000000 89.965736 -31.038179 1393.832153
209 193.241119 1380.371704 -0.002861 0.000000 89.965736 -31.038179 1393.832153
[bottomMouth]
207 -435.092926 615.759399 -0.000954 -0.000022 0.000016 73.527184 753.966492
208 -435.092926 615.759399 -0.000954 -0.000022 0.000016 73.527184 753.966492
209 -435.092926 615.759399 -0.000954 -0.000022 0.000016 73.527184 753.966492
[L_Mouth01]
207 554.440979 7.658243 838.222046 150.204178 23.759130 109.605339 1005.027161
208 554.440979 7.658243 838.222046 150.204178 23.759130 109.605339 1005.027161
209 554.440979 7.658243 838.222046 150.204178 23.759130 109.605339 1005.027161
[L_mouthFront]
207 551.629089 934.514771 339.150421 0.000081 2.804060 79.119301 1136.941284
208 551.629089 934.514771 339.150421 0.000081 2.804060 79.119301 1136.941284
209 551.629089 934.514771 339.150421 0.000081 2.804060 79.119301 1136.941284
[mouthGun]
207 55.332661 1627.420898 0.000000 0.000023 0.000009 -11.038128 1628.361328
208 55.332661 1627.420898 0.000000 0.000023 0.000009 -11.038128 1628.361328
209 55.332661 1627.420898 0.000000 0.000023 0.000009 -11.038128 1628.361328
[R_Mouth01]
207 554.442383 7.659197 -838.223938 29.795891 -23.759109 109.605331 1005.029541
208 554.442383 7.659197 -838.223938 29.795891 -23.759109 109.605331 1005.029541
209 554.442383 7.659197 -838.223938 29.795891 -23.759109 109.605331 1005.029541
[R_mouthFront]
207 551.629089 934.514282 -339.151367 0.000029 -2.803930 79.119133 1136.941162
208 551.629089 934.514282 -339.151367 0.000029 -2.803930 79.119133 1136.941162
209 551.629089 934.514282 -339.151367 0.000029 -2.803930 79.119133 1136.941162
[TopMouth]
207 461.269867 -56.106091 -0.008583 -0.000059 -0.000268 92.025169 464.669525
208 461.269867 -56.106091 -0.008583 -0.000059 -0.000268 92.025169 464.669525
209 461.269867 -56.106091 -0.008583 -0.000059 -0.000268 92.025169 464.669525
[weapon_bone]
207 -987.239868 1448.372803 0.001431 0.000000 89.965736 -31.038221 1752.833740
208 -987.239868 1448.372803 0.001431 0.000000 89.965736 -31.038221 1752.833740
209 -987.239868 1448.372803 0.001431 0.000000 89.965736 -31.038221 1752.833740
